<?xml version="1.0" standalone="no"?>
<!-- Generator: Adobe Fireworks 10, Export SVG Extension by Aaron Beall (http://fireworks.abeall.com) . Version: 0.6.1  -->
<!DOCTYPE svg PUBLIC "-//W3C//DTD SVG 1.1//EN" "http://www.w3.org/Graphics/SVG/1.1/DTD/svg11.dtd">
<svg id="Untitled-Page%201" viewBox="0 0 374 97" style="background-color:#ffffff" version="1.1"
	xmlns="http://www.w3.org/2000/svg" xmlns:xlink="http://www.w3.org/1999/xlink" xml:space="preserve"
	x="0px" y="0px" width="163px" height="43px"
>
	<defs>
		<radialGradient id="gradient1" cx="45.4278%" cy="54.9828%" r="104.6626%">
			<stop stop-color="#ea2127" stop-opacity="1" offset="20%"/>
			<stop stop-color="#cb383e" stop-opacity="1" offset="62%"/>
		</radialGradient>
	</defs>
	<g id="Layer_1_1">
		<rect x="0" y="0" width="374" height="97" fill="#ffffff"/>
		<g>
			<path d="M 133.0844 32.2466 C 139.5165 55.0952 117.9029 81.1382 84.81 90.4149 C 51.7249 99.6907 19.6841 88.6939 13.2574 65.8453 C 6.8229 42.9976 28.4393 16.9518 61.5269 7.675 C 94.6198 -1.5978 126.6552 9.3999 133.0844 32.2466 Z" fill="url(#gradient1)"/>
			<path d="M 11.1423 73.874 C 0.5466 54.8583 14.3071 27.0485 41.8672 11.7518 C 56.7009 3.5203 76.9511 -0.4882 90.039 1.5282 C 79.053 -0.3965 62.0862 1.2581 49.4066 4.8122 C 16.3137 14.0909 -5.2984 40.1378 1.1323 62.9786 C 4.593 75.2839 15.7285 87.1124 30.2061 91.2271 C 21.9652 88.6764 15.0452 80.8817 11.1423 73.874 Z" fill="#c9383e"/>
			<path d="M 145.6027 34.655 C 142.1429 22.3575 128.6726 10.0083 114.2057 5.8887 C 122.4412 8.4366 131.6893 16.7538 135.5926 23.7577 C 146.183 42.7753 132.4308 70.588 104.8624 85.8828 C 90.0209 94.1182 71.1628 98.2261 58.0671 96.2029 C 69.0639 98.1354 84.6385 96.3794 97.3254 92.8184 C 130.4184 83.5427 152.0294 57.5017 145.6027 34.655 Z" fill="#c9383e"/>
			<g>
				<path d="M 52.1044 76.1254 C 43.8582 76.1254 37.3396 74.0358 32.7217 69.9171 C 28.0754 65.7663 25.723 60.0515 25.723 52.9267 C 25.723 46.268 28.3206 40.6273 33.4578 36.1498 C 38.5525 31.7113 45.1453 29.4647 53.0462 29.4647 C 59.7679 29.4647 65.2426 30.5227 69.3145 32.6103 L 70.3085 33.1154 L 64.9105 41.2669 L 64.061 40.6311 C 61.9724 39.0613 58.4759 38.2637 53.6763 38.2637 C 49.1854 38.2637 45.4564 39.6931 42.6058 42.5062 C 39.7155 45.3514 38.3097 48.8685 38.3097 53.2504 C 38.3097 57.6284 39.5993 60.9904 42.2604 63.5315 C 44.8923 66.0461 48.481 67.3215 52.9275 67.3215 C 58.0564 67.3215 62.1018 65.9477 64.9549 63.2321 L 65.7594 62.4677 L 71.7749 70.3199 L 71.0124 70.9234 C 66.6929 74.3741 60.3321 76.1254 52.1044 76.1254 Z" fill="#ffffff"/>
				<path d="M 93.8182 75.9781 L 71.3367 30.199 L 84.8046 30.199 L 97.4891 58.037 L 110.8857 30.199 L 124.1289 30.199 L 100.6616 75.9781 L 93.8182 75.9781 Z" fill="#ffffff"/>
			</g>
			<g>
				<g>
					<path d="M 165.6273 69.3477 L 163.7291 72.0213 L 158.95 72.0213 L 158.95 21.6155 L 167.4234 19.5864 L 167.4234 36.4998 C 169.683 35.1259 172.1458 34.4366 174.8119 34.4366 C 180.1215 34.4366 184.4043 36.1117 187.6585 39.4611 C 190.9126 42.8094 192.5382 47.1007 192.5382 52.3319 C 192.5382 58.3987 190.8999 63.197 187.6243 66.7267 C 184.3477 70.2565 179.9075 72.0213 174.3039 72.0213 C 170.9364 72.0213 168.0447 71.1301 165.6273 69.3477 ZM 167.4234 43.7406 L 167.4234 62.65 C 168.666 64.1165 170.3493 64.8498 172.4741 64.8498 C 176.5635 64.8498 179.4611 63.8805 181.1678 61.9402 C 182.8735 60.0017 183.7263 56.9001 183.7263 52.6371 C 183.7263 45.2861 180.2016 41.6091 173.1511 41.6091 C 170.6433 41.6091 168.7334 42.32 167.4234 43.7406 Z" fill="#d0d1d2"/>
					<path d="M 220.196 67.7242 C 219.4282 68.9879 218.0888 70.0195 216.1799 70.8191 C 214.27 71.6196 212.2761 72.0213 210.1972 72.0213 C 206.2875 72.0213 203.2151 71.0463 200.9779 69.0952 C 198.7407 67.1451 197.6231 64.3759 197.6231 60.7896 C 197.6231 56.5959 199.1989 53.3138 202.3505 50.9444 C 205.503 48.5789 209.9822 47.3942 215.7901 47.3942 C 216.7846 47.3942 217.9589 47.5629 219.3148 47.9012 C 219.3148 43.6382 216.6146 41.5077 211.2142 41.5077 C 208.0284 41.5077 205.3614 42.0382 203.2151 43.0971 L 201.3853 36.5339 C 204.3004 35.1367 207.7675 34.4366 211.7905 34.4366 C 217.3258 34.4366 221.383 35.6944 223.9582 38.2081 C 226.5343 40.7248 227.8219 45.4889 227.8219 52.5016 L 227.8219 60.2494 C 227.8219 65.075 228.794 68.1084 230.7381 69.3477 C 230.0366 70.5665 229.257 71.3173 228.3983 71.5981 C 227.5386 71.8799 226.5568 72.0213 225.4499 72.0213 C 224.2298 72.0213 223.1327 71.5699 222.1616 70.6679 C 221.1905 69.767 220.535 68.7851 220.196 67.7242 ZM 219.3822 54.2957 C 217.9364 54.0022 216.851 53.8559 216.1291 53.8559 C 209.44 53.8559 206.096 56.043 206.096 60.4171 C 206.096 63.666 207.9825 65.2895 211.7563 65.2895 C 216.8412 65.2895 219.3822 62.7524 219.3822 57.6772 L 219.3822 54.2957 Z" fill="#d0d1d2"/>
					<path d="M 260.3262 71.3446 L 260.3262 50.4052 C 260.3262 47.3152 259.7323 45.0599 258.5463 43.6382 C 257.3603 42.2166 255.424 41.5077 252.7336 41.5077 C 251.4919 41.5077 250.1623 41.8578 248.7516 42.5559 C 247.338 43.2551 246.237 44.1238 245.4476 45.1613 L 245.4476 71.3446 L 236.9728 71.3446 L 236.9728 35.1133 L 243.0737 35.1133 L 244.6329 38.4967 C 246.9375 35.789 250.3391 34.4366 254.8359 34.4366 C 259.151 34.4366 262.5566 35.7285 265.0546 38.3105 C 267.5516 40.8925 268.7991 44.4963 268.7991 49.1181 L 268.7991 71.3446 L 260.3262 71.3446 Z" fill="#d0d1d2"/>
					<path d="M 301.1696 71.3446 L 290.4918 54.9373 L 286.4249 59.2334 L 286.4249 71.3446 L 277.951 71.3446 L 277.951 21.6155 L 286.4249 19.5864 L 286.4249 49.0177 L 298.5241 35.1133 L 308.7271 35.1133 L 296.4569 48.848 L 311.2349 71.3446 L 301.1696 71.3446 Z" fill="#d0d1d2"/>
					<path d="M 334.012 67.7242 C 333.2431 68.9879 331.9048 70.0195 329.9958 70.8191 C 328.085 71.6196 326.091 72.0213 324.0121 72.0213 C 320.1035 72.0213 317.03 71.0463 314.7929 69.0952 C 312.5567 67.1451 311.4381 64.3759 311.4381 60.7896 C 311.4381 56.5959 313.0139 53.3138 316.1664 50.9444 C 319.318 48.5789 323.7982 47.3942 329.605 47.3942 C 330.5996 47.3942 331.7738 47.5629 333.1308 47.9012 C 333.1308 43.6382 330.4306 41.5077 325.0301 41.5077 C 321.8443 41.5077 319.1773 42.0382 317.03 43.0971 L 315.2003 36.5339 C 318.1154 35.1367 321.5835 34.4366 325.6045 34.4366 C 331.1408 34.4366 335.1989 35.6944 337.7741 38.2081 C 340.3493 40.7248 341.6379 45.4889 341.6379 52.5016 L 341.6379 60.2494 C 341.6379 65.075 342.6089 68.1084 344.552 69.3477 C 343.8506 70.5665 343.073 71.3173 342.2133 71.5981 C 341.3546 71.8799 340.3727 72.0213 339.2649 72.0213 C 338.0438 72.0213 336.9486 71.5699 335.9766 70.6679 C 335.0055 69.767 334.349 68.7851 334.012 67.7242 ZM 333.1972 54.2957 C 331.7523 54.0022 330.667 53.8559 329.9441 53.8559 C 323.255 53.8559 319.911 56.043 319.911 60.4171 C 319.911 63.666 321.7984 65.2895 325.5723 65.2895 C 330.6562 65.2895 333.1972 62.7524 333.1972 57.6772 L 333.1972 54.2957 Z" fill="#d0d1d2"/>
					<path d="M 348.5526 69.0113 L 351.5693 62.2785 C 354.0986 64.2871 356.9571 65.2895 360.1438 65.2895 C 363.4429 65.2895 365.0929 64.1165 365.0929 61.7705 C 365.0929 60.3966 364.5947 59.2675 363.6012 58.388 C 362.6057 57.5095 360.6753 56.472 357.8051 55.2756 C 351.5459 52.6819 348.4168 49.0508 348.4168 44.3832 C 348.4168 41.2484 349.6145 38.8068 352.0099 37.0576 C 354.4044 35.3112 357.466 34.4366 361.195 34.4366 C 364.9688 34.4366 368.5161 35.2829 371.8386 36.9737 L 369.3963 43.5368 C 367.544 41.9592 364.9688 41.1694 361.6698 41.1694 C 358.7077 41.1694 357.2287 42.3414 357.2287 44.6874 C 357.2287 45.6118 357.7142 46.4464 358.6872 47.1914 C 359.6573 47.9353 361.7372 48.9328 364.9239 50.1838 C 368.1097 51.4368 370.4025 52.953 371.8044 54.7354 C 373.2043 56.5169 373.9058 58.6698 373.9058 61.1962 C 373.9058 64.5562 372.6563 67.2006 370.1602 69.1293 C 367.6622 71.056 364.2674 72.0213 359.9738 72.0213 C 357.5559 72.0213 355.6187 71.8234 354.1621 71.4305 C 352.7035 71.0356 350.8337 70.2272 348.5526 69.0113 Z" fill="#d0d1d2"/>
				</g>
				<g>
					<path d="M 164.0437 68.3219 L 162.1455 70.9936 L 157.3664 70.9936 L 157.3664 20.5887 L 165.8398 18.5596 L 165.8398 35.4731 C 168.0994 34.0982 170.5622 33.4098 173.2283 33.4098 C 178.5379 33.4098 182.8207 35.084 186.0749 38.4334 C 189.329 41.7827 190.9546 46.073 190.9546 51.3052 C 190.9546 57.372 189.3163 62.1703 186.0407 65.7 C 182.7641 69.2297 178.3239 70.9936 172.7203 70.9936 C 169.3538 70.9936 166.4611 70.1034 164.0437 68.3219 ZM 165.8398 42.7129 L 165.8398 61.6233 C 167.0819 63.0888 168.7657 63.822 170.8905 63.822 C 174.9799 63.822 177.8775 62.8518 179.5842 60.9124 C 181.2899 58.974 182.1427 55.8723 182.1427 51.6104 C 182.1427 44.2584 178.618 40.5824 171.5675 40.5824 C 169.0597 40.5824 167.1498 41.2932 165.8398 42.7129 Z" fill="#706d69"/>
					<path d="M 218.6124 66.6975 C 217.8446 67.9612 216.5052 68.9928 214.5963 69.7933 C 212.6864 70.5929 210.6925 70.9936 208.6136 70.9936 C 204.7039 70.9936 201.6315 70.0195 199.3943 68.0674 C 197.1571 66.1173 196.0395 63.3481 196.0395 59.7619 C 196.0395 55.5681 197.6153 52.287 200.7669 49.9186 C 203.9194 47.5512 208.3987 46.3665 214.2065 46.3665 C 215.201 46.3665 216.3753 46.5361 217.7312 46.8725 C 217.7312 42.6115 215.031 40.48 209.6306 40.48 C 206.4448 40.48 203.7778 41.0105 201.6315 42.0694 L 199.8017 35.5082 C 202.7168 34.1099 206.1839 33.4098 210.2069 33.4098 C 215.7422 33.4098 219.7994 34.6677 222.3746 37.1814 C 224.9507 39.697 226.2393 44.4602 226.2393 51.4738 L 226.2393 59.2217 C 226.2393 64.0473 227.2094 67.0817 229.1525 68.3219 C 228.453 69.5408 227.6734 70.2896 226.8147 70.5724 C 225.956 70.8542 224.9732 70.9936 223.8663 70.9936 C 222.6461 70.9936 221.5491 70.5432 220.578 69.6402 C 219.6069 68.7393 218.9514 67.7584 218.6124 66.6975 ZM 217.7986 53.268 C 216.3528 52.9745 215.2674 52.8282 214.5455 52.8282 C 207.8564 52.8282 204.5124 55.0153 204.5124 59.3914 C 204.5124 62.6393 206.3989 64.2618 210.1727 64.2618 C 215.2577 64.2618 217.7986 61.7256 217.7986 56.6514 L 217.7986 53.268 Z" fill="#706d69"/>
					<path d="M 258.7426 70.3169 L 258.7426 49.3775 C 258.7426 46.2885 258.1506 44.0331 256.9637 42.6115 C 255.7767 41.1899 253.8385 40.48 251.15 40.48 C 249.9063 40.48 248.5806 40.8301 247.168 41.5282 C 245.7563 42.2273 244.6534 43.0961 243.8621 44.1326 L 243.8621 70.3169 L 235.3892 70.3169 L 235.3892 34.0865 L 241.4901 34.0865 L 243.0503 37.469 C 245.3548 34.7632 248.7545 33.4098 253.2523 33.4098 C 257.5674 33.4098 260.9749 34.7008 263.471 37.2828 C 265.967 39.8667 267.2165 43.4696 267.2165 48.0914 L 267.2165 70.3169 L 258.7426 70.3169 Z" fill="#706d69"/>
					<path d="M 299.5841 70.3169 L 288.9082 53.9115 L 284.8403 58.2066 L 284.8403 70.3169 L 276.3674 70.3169 L 276.3674 20.5887 L 284.8403 18.5596 L 284.8403 47.9899 L 296.9425 34.0865 L 307.1425 34.0865 L 294.8743 47.8203 L 309.6513 70.3169 L 299.5841 70.3169 Z" fill="#706d69"/>
					<path d="M 332.4264 66.6975 C 331.6595 67.9612 330.3202 68.9928 328.4103 69.7933 C 326.5013 70.5929 324.5074 70.9936 322.4295 70.9936 C 318.5189 70.9936 315.4464 70.0195 313.2103 68.0674 C 310.9731 66.1173 309.8545 63.3481 309.8545 59.7619 C 309.8545 55.5681 311.4303 52.287 314.5819 49.9186 C 317.7354 47.5512 322.2136 46.3665 328.0215 46.3665 C 329.016 46.3665 330.1902 46.5361 331.5462 46.8725 C 331.5462 42.6115 328.846 40.48 323.4445 40.48 C 320.2598 40.48 317.5927 41.0105 315.4464 42.0694 L 313.6167 35.5082 C 316.5318 34.1099 319.9999 33.4098 324.0229 33.4098 C 329.5582 33.4098 333.6134 34.6677 336.1895 37.1814 C 338.7667 39.697 340.0533 44.4602 340.0533 51.4738 L 340.0533 59.2217 C 340.0533 64.0473 341.0253 67.0817 342.9684 68.3219 C 342.269 69.5408 341.4884 70.2896 340.6306 70.5724 C 339.771 70.8542 338.7872 70.9936 337.6813 70.9936 C 336.4611 70.9936 335.365 70.5432 334.394 69.6402 C 333.4209 68.7393 332.7674 67.7584 332.4264 66.6975 ZM 331.6146 53.268 C 330.1678 52.9745 329.0834 52.8282 328.3604 52.8282 C 321.6714 52.8282 318.3274 55.0153 318.3274 59.3914 C 318.3274 62.6393 320.2148 64.2618 323.9877 64.2618 C 329.0726 64.2618 331.6146 61.7256 331.6146 56.6514 L 331.6146 53.268 Z" fill="#706d69"/>
					<path d="M 346.968 67.9836 L 349.9847 61.2518 C 352.516 63.2585 355.3745 64.2618 358.5602 64.2618 C 361.8593 64.2618 363.5093 63.0888 363.5093 60.7438 C 363.5093 59.3689 363.0121 58.2408 362.0175 57.3622 C 361.024 56.4818 359.0907 55.4443 356.2214 54.2479 C 349.9623 51.6552 346.8332 48.0231 346.8332 43.3564 C 346.8332 40.2216 348.0309 37.7791 350.4253 36.0318 C 352.8208 34.2835 355.8824 33.4098 359.6114 33.4098 C 363.3833 33.4098 366.9315 34.2552 370.2531 35.947 L 367.8146 42.5091 C 365.9604 40.9324 363.3833 40.1426 360.0852 40.1426 C 357.1261 40.1426 355.6451 41.3137 355.6451 43.6597 C 355.6451 44.586 356.1316 45.4197 357.1026 46.1637 C 358.0737 46.9076 360.1536 47.9051 363.3393 49.1581 C 366.5251 50.4091 368.8189 51.9263 370.2189 53.7067 C 371.6208 55.4891 372.3212 57.6431 372.3212 60.1685 C 372.3212 63.5285 371.0727 66.1739 368.5766 68.1016 C 366.0786 70.0302 362.6838 70.9936 358.3922 70.9936 C 355.9733 70.9936 354.0351 70.7957 352.5785 70.4027 C 351.1209 70.0078 349.2511 69.2005 346.968 67.9836 Z" fill="#706d69"/>
				</g>
			</g>
		</g>
	</g>
</svg>